<?xml version="1.0" encoding="UTF-8" standalone="no"?>
<svg
   width="64"
   height="64"
   viewBox="0 0 64 64"
   fill="none"
   version="1.1"
   id="svg9"
   sodipodi:docname="favicon.svg"
   inkscape:version="1.4.2 (f4327f4, 2025-05-13)"
   xmlns:inkscape="http://www.inkscape.org/namespaces/inkscape"
   xmlns:sodipodi="http://sodipodi.sourceforge.net/DTD/sodipodi-0.dtd"
   xmlns="http://www.w3.org/2000/svg"
   xmlns:svg="http://www.w3.org/2000/svg">
  <sodipodi:namedview
     id="namedview9"
     pagecolor="#ffffff"
     bordercolor="#000000"
     borderopacity="0.25"
     inkscape:showpageshadow="2"
     inkscape:pageopacity="0.0"
     inkscape:pagecheckerboard="0"
     inkscape:deskcolor="#d1d1d1"
     inkscape:zoom="18.234375"
     inkscape:cx="32"
     inkscape:cy="27.694944"
     inkscape:window-width="2558"
     inkscape:window-height="1360"
     inkscape:window-x="2553"
     inkscape:window-y="0"
     inkscape:window-maximized="0"
     inkscape:current-layer="svg9" />
  <defs
     id="defs4">
    <linearGradient
       id="bg"
       x1="0"
       y1="0"
       x2="1"
       y2="1">
      <stop
         offset="0%"
         stop-color="#1D5D4F"
         id="stop1" />
      <stop
         offset="100%"
         stop-color="#17493E"
         id="stop2" />
    </linearGradient>
    <linearGradient
       id="flash"
       x1="1368.5216"
       y1="684.37818"
       x2="3375.3446"
       y2="2691.2011"
       gradientTransform="matrix(0.01036637,0,0,-0.013788,7.0878542,55.185568)"
       gradientUnits="userSpaceOnUse">
      <stop
         offset="0%"
         stop-color="#F2A65A"
         id="stop3" />
      <stop
         offset="100%"
         stop-color="#DE8D3C"
         id="stop4" />
    </linearGradient>
  </defs>
  <path
     d="M 32.437019,1.8943169 58.028869,16.438685 V 47.143464 L 32.437019,61.687833 6.8451679,47.143464 V 16.438685 Z"
     fill="#f4faf7"
     fill-opacity="0.95"
     id="path4"
     style="stroke-width:1.66048" />
  <path
     d="M 32.437019,1.8943169 58.028869,16.438685 V 47.143464 L 32.437019,61.687833 6.8451679,47.143464 V 16.438685 Z"
     stroke="#1d5d4f"
     stroke-width="1.98973"
     id="path5" />
  <path
     d="m 32.437019,13.810346 17.061233,9.696245 V 41.283043 L 32.437019,50.979287 15.375785,41.283043 V 23.506591 Z"
     fill="#cfe7de"
     id="path6"
     style="stroke-width:1.66048" />
  <path
     d="M 32.437019,13.810346 49.498252,23.506591 32.437019,33.202838 15.375785,23.506591 Z"
     fill="#b8dbcf"
     id="path7"
     style="stroke-width:1.66048" />
  <path
     d="M 32.437019,33.202838 49.498252,23.506591 V 41.283043 L 32.437019,50.979287 Z"
     fill="#8fc7b5"
     id="path8"
     style="stroke-width:1.66048" />
  <path
     d="m 37.183872,18.219598 c 0.417659,0.197804 0.859885,0.861028 0.859885,1.291539 0,0.279254 -0.565068,1.221727 -2.149715,3.653545 -1.179272,1.815139 -2.149716,3.38593 -2.149716,3.502286 0,0.11635 0.09828,0.325794 0.221114,0.453785 0.110556,0.127989 1.86718,1.256632 3.894057,2.513266 2.28484,1.41953 3.795783,2.420183 3.967758,2.664528 0.233398,0.302523 0.282536,0.477055 0.233398,0.919204 -0.02456,0.302523 -0.122839,0.639953 -0.221112,0.756308 -0.368523,0.418878 -13.930156,11.577316 -14.212691,11.693672 -0.110546,0.04654 -0.442227,0.08144 -0.737044,0.08144 -0.74933,0.0117 -1.375818,-0.535233 -1.461808,-1.279904 -0.06142,-0.523597 -0.02456,-0.593411 2.100581,-3.862984 2.395397,-3.688452 2.407681,-3.700088 1.560078,-4.200413 -1.68292,-1.012288 -7.124771,-4.44476 -7.345884,-4.630928 -0.417659,-0.3607 -0.565068,-0.919204 -0.405376,-1.466073 0.09828,-0.38397 0.368522,-0.663223 1.449523,-1.54752 0.724762,-0.605045 1.510943,-1.256634 1.744341,-1.454437 0.233397,-0.209439 2.063726,-1.710419 4.053749,-3.362657 1.990022,-1.640605 4.36085,-3.595369 5.257589,-4.340041 0.909022,-0.744671 1.732057,-1.396258 1.842613,-1.442802 0.343955,-0.127989 1.166989,-0.104718 1.49866,0.05817 z"
     fill="url(#flash)"
     id="path9"
     style="fill:url(#flash);stroke-width:0.0119553" />
</svg>
