<?xml version="1.0" encoding="UTF-8" standalone="no"?>
<svg
   width="512"
   height="512"
   viewBox="0 0 512 512"
   fill="none"
   role="img"
   aria-labelledby="title desc"
   version="1.1"
   id="svg9"
   sodipodi:docname="projection-logo-mark.svg"
   inkscape:version="1.4.2 (f4327f4, 2025-05-13)"
   xmlns:inkscape="http://www.inkscape.org/namespaces/inkscape"
   xmlns:sodipodi="http://sodipodi.sourceforge.net/DTD/sodipodi-0.dtd"
   xmlns="http://www.w3.org/2000/svg"
   xmlns:svg="http://www.w3.org/2000/svg">
  <sodipodi:namedview
     id="namedview9"
     pagecolor="#ffffff"
     bordercolor="#000000"
     borderopacity="0.25"
     inkscape:showpageshadow="2"
     inkscape:pageopacity="0.0"
     inkscape:pagecheckerboard="0"
     inkscape:deskcolor="#d1d1d1"
     inkscape:zoom="2.2792969"
     inkscape:cx="256"
     inkscape:cy="251.83205"
     inkscape:window-width="2558"
     inkscape:window-height="1360"
     inkscape:window-x="-7"
     inkscape:window-y="0"
     inkscape:window-maximized="0"
     inkscape:current-layer="svg9" />
  <title
     id="title">Projection icon mark</title>
  <desc
     id="desc">Icon mark for Projection with geometric projection planes and flash core in Nolimit City-inspired colors.</desc>
  <defs
     id="defs4">
    <linearGradient
       id="bg"
       x1="0"
       y1="0"
       x2="1"
       y2="1">
      <stop
         offset="0%"
         stop-color="#1D5D4F"
         id="stop1" />
      <stop
         offset="100%"
         stop-color="#17493E"
         id="stop2" />
    </linearGradient>
    <linearGradient
       id="beam"
       x1="1368.5216"
       y1="684.37818"
       x2="3375.3446"
       y2="2691.2011"
       gradientTransform="matrix(0.08646103,0,0,-0.10726284,51.364957,433.21689)"
       gradientUnits="userSpaceOnUse">
      <stop
         offset="0%"
         stop-color="#F2A65A"
         id="stop3" />
      <stop
         offset="100%"
         stop-color="#DE8D3C"
         id="stop4" />
    </linearGradient>
    <linearGradient
       id="flash"
       x1="1368.5216"
       y1="684.37817"
       x2="3375.3445"
       y2="2691.2012"
       gradientTransform="matrix(0.08400826,0,0,-0.11173691,46.203799,446.82446)"
       gradientUnits="userSpaceOnUse">
      <stop
         offset="0%"
         stop-color="#F2A65A"
         id="stop3-0" />
      <stop
         offset="100%"
         stop-color="#DE8D3C"
         id="stop4-9" />
    </linearGradient>
  </defs>
  <path
     d="M 251.6315,14.95625 459.02589,132.82263 V 381.6518 L 251.6315,499.51827 44.237125,381.6518 V 132.82263 Z"
     fill="#f4faf7"
     fill-opacity="0.95"
     id="path4"
     style="stroke-width:13.4564" />
  <path
     d="M 251.6315,14.95625 459.02589,132.82263 V 381.6518 L 251.6315,499.51827 44.237125,381.6518 V 132.82263 Z"
     stroke="#1d5d4f"
     stroke-width="16.1246"
     id="path5" />
  <path
     d="m 251.6315,111.52284 138.26292,78.57758 V 334.1594 L 251.6315,412.73709 113.36853,334.1594 V 190.10042 Z"
     fill="#cfe7de"
     id="path6"
     style="stroke-width:13.4564" />
  <path
     d="M 251.6315,111.52284 389.89442,190.10042 251.6315,268.67809 113.36853,190.10042 Z"
     fill="#b8dbcf"
     id="path7"
     style="stroke-width:13.4564" />
  <path
     d="M 251.6315,268.67809 389.89442,190.10042 V 334.1594 L 251.6315,412.73709 Z"
     fill="#8fc7b5"
     id="path8"
     style="stroke-width:13.4564" />
  <path
     d="m 290.0996,147.25506 c 3.38469,1.60296 6.9685,6.97772 6.9685,10.46654 0,2.26303 -4.57926,9.90073 -17.42116,29.60802 -9.55671,14.70975 -17.42107,27.4393 -17.42107,28.38227 0,0.9429 0.7966,2.6402 1.79185,3.67741 0.89597,1.03722 15.13148,10.18364 31.55717,20.36735 18.51616,11.50375 30.76071,19.61294 32.15433,21.59315 1.89147,2.45158 2.28969,3.86599 1.89147,7.44913 -0.1994,2.45161 -0.9955,5.18609 -1.79188,6.12906 -2.98647,3.39458 -112.88894,93.82165 -115.17854,94.76462 -0.89589,0.37683 -3.58379,0.65966 -5.97292,0.65966 -6.07252,0.0949 -11.14953,-4.33748 -11.84639,-10.37222 -0.49759,-4.2432 -0.19937,-4.80896 17.02294,-31.30538 19.41214,-29.89091 19.51165,-29.98523 12.64276,-34.03978 -13.63825,-8.20354 -57.73859,-36.02001 -59.53052,-37.5287 -3.38469,-2.9231 -4.57929,-7.44912 -3.28509,-11.88092 0.79661,-3.11168 2.98645,-5.37471 11.74679,-12.54099 5.87341,-4.90329 12.24454,-10.18371 14.136,-11.78667 1.89145,-1.6973 16.72431,-13.86111 32.85128,-27.25075 16.12697,-13.29529 35.34,-29.1365 42.6071,-35.17134 7.36663,-6.03474 14.0365,-11.31511 14.93237,-11.69235 2.78745,-1.03722 9.4572,-0.84863 12.14501,0.47166 z"
     fill="url(#flash)"
     id="path9"
     style="fill:url(#flash);stroke-width:0.0968849" />
</svg>
